<mxfile host="app.diagrams.net" modified="2022-07-20T14:36:32.624Z" agent="5.0 (Windows NT 10.0; Win64; x64) AppleWebKit/537.36 (KHTML, like Gecko) Chrome/103.0.5060.114 Safari/537.36" etag="27cgWCKDuw2CioJ847uM" version="20.1.2" type="github">
  <diagram id="Fmc8TGQid-nYDSHVtyvv" name="Pàgina-1">
    <mxGraphModel dx="1102" dy="586" grid="1" gridSize="10" guides="1" tooltips="1" connect="1" arrows="1" fold="1" page="1" pageScale="1" pageWidth="827" pageHeight="1169" math="0" shadow="0">
      <root>
        <mxCell id="0" />
        <mxCell id="1" parent="0" />
        <mxCell id="LGba17AcoOO2xGvBsgM_-1" value="Guerra" style="swimlane;childLayout=stackLayout;horizontal=1;startSize=30;horizontalStack=0;rounded=1;fontSize=14;fontStyle=0;strokeWidth=2;resizeParent=0;resizeLast=1;shadow=0;dashed=0;align=center;" vertex="1" parent="1">
          <mxGeometry x="230" y="270" width="160" height="120" as="geometry" />
        </mxCell>
        <mxCell id="LGba17AcoOO2xGvBsgM_-2" value="- &lt;u&gt;id&lt;/u&gt;&lt;br&gt;- añoInicio&lt;br&gt;- añoFinal" style="align=left;strokeColor=none;fillColor=none;spacingLeft=4;fontSize=12;verticalAlign=top;resizable=0;rotatable=0;part=1;html=1;" vertex="1" parent="LGba17AcoOO2xGvBsgM_-1">
          <mxGeometry y="30" width="160" height="90" as="geometry" />
        </mxCell>
      </root>
    </mxGraphModel>
  </diagram>
</mxfile>
